<svg preserveAspectRatio="none" width="100%" height="100%" overflow="visible" style="display: block;" viewBox="0 0 57.8994 57.8825" fill="none" xmlns="http://www.w3.org/2000/svg">
<path id="Vector" d="M56.6572 53.0215C55.4221 53.514 54.2227 53.7639 53.0447 53.7639C50.7673 53.7639 49.1038 53.1857 48.0401 52.0293C46.9763 50.8729 46.448 49.0099 46.448 46.4259V31.022C45.3129 30.6437 43.9493 30.3938 42.3572 30.2796C42.3572 29.4088 42.5286 28.5736 42.8712 27.7813H46.4552V20.2792C47.933 19.8652 49.3323 19.1086 50.6602 18.0022C51.0386 18.1949 51.2884 18.4447 51.4027 18.7731C51.5169 19.0943 51.574 19.8224 51.574 20.9645V27.7885H57.8994V0H0V57.8825H57.8922V52.4219C57.5139 52.636 57.1141 52.843 56.6572 53.0215ZM30.1634 14.5045C30.8273 13.8407 31.6126 13.5123 32.5193 13.5123C33.5402 13.5123 34.3684 13.8336 34.9895 14.476C35.6178 15.1184 35.9247 15.9536 35.9247 16.9743C35.9247 17.8451 35.5892 18.6161 34.9324 19.2799C34.2684 19.9437 33.4617 20.2721 32.5193 20.2721C31.5769 20.2721 30.7773 19.9509 30.1348 19.3084C29.4923 18.666 29.171 17.888 29.171 16.9743C29.171 15.9893 29.4994 15.1612 30.1634 14.5045ZM32.7478 53.2428C30.2847 53.2428 28.1073 53.2999 26.2082 53.4141C26.2082 52.3933 26.301 51.5725 26.4938 50.9729C28.0073 50.9729 29.0425 50.6231 29.5922 49.9236C30.1419 49.224 30.4204 47.9249 30.4204 46.0262V34.7695C30.4204 33.7844 30.3276 33.0064 30.1348 32.4353C29.942 31.8643 29.5494 31.4431 28.9426 31.1576C28.3357 30.8721 27.4076 30.7293 26.1582 30.7293C26.1582 29.8585 26.3296 29.159 26.6723 28.6236C27.6218 28.6236 28.964 28.4166 30.7131 27.9955C32.4551 27.5815 33.6473 27.146 34.297 26.6892C35.1323 26.9533 35.5464 27.7099 35.5464 28.9662V46.0191C35.5464 47.9178 35.7891 49.2098 36.2888 49.9164C36.7815 50.616 37.6524 50.9657 38.9018 50.9657C39.0874 51.6082 39.1874 52.4219 39.1874 53.4069C37.217 53.2927 35.0752 53.2356 32.7621 53.2356L32.7478 53.2428Z" fill="var(--fill-0, #F08D23)"/>
</svg>
