<svg width="242" height="259" viewBox="0 0 242 259" fill="none" xmlns="http://www.w3.org/2000/svg">
<path d="M33.3926 220.092C33.628 220.186 33.7809 220.327 33.8516 220.516C33.9222 220.704 33.958 221.175 33.958 221.929V226.169H38.5518C38.5518 226.404 38.5275 226.664 38.4805 226.946C38.4334 227.205 38.3511 227.465 38.2334 227.724C37.3854 227.747 36.608 227.806 35.9014 227.9C35.1947 227.971 34.5469 228.066 33.958 228.184V237.018C33.958 237.795 34.0402 238.443 34.2051 238.961C34.37 239.456 34.6059 239.821 34.9121 240.057C35.2182 240.292 35.5831 240.41 36.0068 240.41C36.5015 240.41 36.926 240.34 37.2793 240.198C37.6562 240.057 38.01 239.844 38.3398 239.562C38.646 239.915 38.822 240.304 38.8691 240.728C38.4922 241.175 37.9151 241.552 37.1377 241.858C36.3839 242.165 35.6298 242.318 34.876 242.318C33.4863 242.318 32.4497 241.964 31.7666 241.258C31.1071 240.528 30.7774 239.361 30.7773 237.76V228.184C30.424 228.066 30.0585 227.971 29.6816 227.9C29.3048 227.806 28.822 227.747 28.2334 227.724C28.2334 227.418 28.2566 227.158 28.3037 226.946C28.3508 226.711 28.4331 226.451 28.5508 226.169H30.7773V221.505C31.2484 221.387 31.7077 221.199 32.1553 220.939C32.6264 220.68 33.0392 220.398 33.3926 220.092ZM48.6787 225.498C49.5501 225.498 50.2919 225.628 50.9043 225.887C51.5403 226.122 52.0469 226.44 52.4238 226.841C53.0363 227.43 53.4365 228.207 53.625 229.173C53.8135 230.115 53.9082 231.376 53.9082 232.954V236.841C53.9082 237.5 53.9556 238.03 54.0498 238.431C54.1676 238.808 54.3793 239.091 54.6855 239.279C54.9917 239.444 55.4628 239.55 56.0986 239.597C56.0986 239.832 56.087 240.104 56.0635 240.41C56.0399 240.693 55.9809 240.964 55.8867 241.223C55.2978 241.246 54.6384 241.364 53.9082 241.576C53.2015 241.765 52.577 242.012 52.0352 242.318C51.776 242.201 51.5643 241.988 51.3994 241.682C51.2581 241.375 51.1875 240.893 51.1875 240.233C51.1875 240.021 51.1991 239.774 51.2227 239.491C51.2275 239.429 51.2334 239.367 51.2402 239.308C51.1601 239.502 51.061 239.705 50.9395 239.915C50.7039 240.339 50.3858 240.716 49.9854 241.046C49.585 241.399 49.079 241.694 48.4668 241.93C47.8543 242.142 47.1118 242.247 46.2402 242.247C44.7561 242.247 43.6251 241.917 42.8477 241.258C42.0704 240.575 41.6817 239.656 41.6816 238.502C41.6816 237.583 41.8936 236.806 42.3174 236.17C42.7649 235.51 43.3306 234.968 44.0137 234.544C44.7203 234.096 45.4745 233.744 46.2754 233.484C47.0999 233.225 47.9013 233.024 48.6787 232.883C49.4558 232.742 50.1388 232.624 50.7275 232.53C50.7275 231.565 50.7043 230.81 50.6572 230.269C50.6337 229.727 50.5631 229.302 50.4453 228.996C50.3511 228.666 50.1974 228.384 49.9854 228.148C49.7027 227.795 49.373 227.536 48.9961 227.371C48.6427 227.183 48.2425 227.088 47.7949 227.088C47.0175 227.088 46.4046 227.335 45.957 227.83C45.5095 228.301 45.1914 228.855 45.0029 229.491C44.8145 230.127 44.7091 230.693 44.6855 231.188C44.4265 231.188 44.0966 231.175 43.6963 231.151C43.3194 231.104 43.0361 231.034 42.8477 230.939C42.8948 230.351 42.9064 229.691 42.8828 228.961C42.8593 228.231 42.7887 227.606 42.6709 227.088C43.6367 226.593 44.6499 226.205 45.71 225.922C46.7936 225.639 47.7835 225.498 48.6787 225.498ZM87.4658 225.498C88.3372 225.498 89.079 225.628 89.6914 225.887C90.3274 226.122 90.834 226.44 91.2109 226.841C91.8234 227.43 92.2246 228.207 92.4131 229.173C92.6015 230.115 92.6953 231.376 92.6953 232.954V236.841C92.6953 237.5 92.7427 238.03 92.8369 238.431C92.9547 238.808 93.1664 239.091 93.4727 239.279C93.7789 239.444 94.2507 239.55 94.8867 239.597C94.8867 239.832 94.8741 240.104 94.8506 240.41C94.827 240.693 94.768 240.964 94.6738 241.223C94.085 241.246 93.4254 241.364 92.6953 241.576C91.9886 241.765 91.3641 242.012 90.8223 242.318C90.5632 242.201 90.3514 241.988 90.1865 241.682C90.0453 241.375 89.9746 240.893 89.9746 240.233C89.9746 240.021 89.9862 239.774 90.0098 239.491C90.0146 239.429 90.0206 239.367 90.0273 239.308C89.9473 239.502 89.849 239.705 89.7275 239.915C89.492 240.339 89.1738 240.716 88.7734 241.046C88.373 241.399 87.8663 241.694 87.2539 241.93C86.6414 242.142 85.899 242.247 85.0273 242.247C83.5432 242.247 82.4122 241.917 81.6348 241.258C80.8576 240.575 80.4688 239.656 80.4688 238.502C80.4688 237.583 80.6815 236.806 81.1055 236.17C81.553 235.51 82.1177 234.968 82.8008 234.544C83.5074 234.096 84.2617 233.743 85.0625 233.484C85.887 233.225 86.6884 233.024 87.4658 232.883C88.2429 232.742 88.9259 232.624 89.5146 232.53C89.5146 231.565 89.4914 230.81 89.4443 230.269C89.4208 229.727 89.3502 229.302 89.2324 228.996C89.1382 228.667 88.9853 228.384 88.7734 228.148C88.4907 227.795 88.1601 227.536 87.7832 227.371C87.4299 227.183 87.0296 227.088 86.582 227.088C85.8048 227.088 85.1927 227.336 84.7451 227.83C84.2975 228.301 83.9795 228.855 83.791 229.491C83.6026 230.127 83.4962 230.693 83.4727 231.188C83.2136 231.188 82.8838 231.175 82.4834 231.151C82.1065 231.104 81.8232 231.034 81.6348 230.939C81.6819 230.351 81.6944 229.691 81.6709 228.961C81.6473 228.231 81.5758 227.606 81.458 227.088C82.4238 226.593 83.4371 226.205 84.4971 225.922C85.5807 225.639 86.5706 225.498 87.4658 225.498ZM126.114 225.498C127.645 225.498 128.87 225.828 129.789 226.487C130.731 227.147 131.426 228.031 131.874 229.138C132.345 230.245 132.627 231.47 132.722 232.812C132.627 233.284 132.451 233.684 132.191 234.014H130.39C129.589 234.014 128.682 234.025 127.669 234.049C126.656 234.049 125.62 234.073 124.56 234.12C123.775 234.138 123.022 234.163 122.302 234.193C122.361 234.993 122.488 235.782 122.687 236.559C122.993 237.642 123.511 238.549 124.241 239.279C124.995 239.986 126.056 240.339 127.422 240.339C128.199 240.339 128.965 240.163 129.719 239.81C130.472 239.456 131.144 238.949 131.732 238.29C131.921 238.384 132.098 238.549 132.263 238.784C132.451 238.996 132.556 239.196 132.58 239.385C131.779 240.445 130.849 241.199 129.789 241.646C128.753 242.094 127.587 242.318 126.291 242.318C124.619 242.318 123.228 241.941 122.121 241.188C121.014 240.434 120.178 239.42 119.612 238.148C119.071 236.853 118.799 235.439 118.799 233.908C118.799 232.401 119.094 231.01 119.683 229.738C120.272 228.466 121.108 227.441 122.191 226.664C123.299 225.887 124.607 225.498 126.114 225.498ZM174.115 225.498C175.646 225.498 176.871 225.828 177.79 226.487C178.732 227.147 179.427 228.031 179.875 229.138C180.346 230.245 180.628 231.47 180.723 232.812C180.628 233.284 180.452 233.684 180.192 234.014H178.391C177.59 234.014 176.683 234.025 175.67 234.049C174.657 234.049 173.62 234.073 172.561 234.12C171.776 234.138 171.023 234.163 170.303 234.193C170.362 234.993 170.489 235.782 170.688 236.559C170.994 237.642 171.512 238.549 172.242 239.279C172.996 239.986 174.056 240.339 175.422 240.339C176.199 240.339 176.965 240.163 177.719 239.81C178.473 239.456 179.144 238.95 179.733 238.29C179.922 238.384 180.099 238.549 180.264 238.784C180.452 238.996 180.557 239.196 180.581 239.385C179.78 240.445 178.85 241.199 177.79 241.646C176.754 242.094 175.587 242.318 174.292 242.318C172.62 242.318 171.229 241.941 170.122 241.188C169.015 240.434 168.179 239.42 167.613 238.148C167.071 236.853 166.8 235.439 166.8 233.908C166.8 232.401 167.095 231.01 167.684 229.738C168.273 228.466 169.109 227.441 170.192 226.664C171.3 225.887 172.608 225.498 174.115 225.498ZM209.073 220.092C209.309 220.186 209.463 220.327 209.533 220.516C209.604 220.704 209.639 221.175 209.639 221.929V226.169H214.232C214.232 226.404 214.209 226.664 214.162 226.946C214.115 227.205 214.033 227.465 213.915 227.724C213.067 227.747 212.289 227.806 211.582 227.9C210.875 227.971 210.227 228.066 209.639 228.184V237.018C209.639 237.795 209.722 238.443 209.887 238.961C210.052 239.456 210.287 239.821 210.593 240.057C210.899 240.292 211.264 240.41 211.688 240.41C212.183 240.41 212.608 240.34 212.961 240.198C213.338 240.057 213.691 239.844 214.021 239.562C214.327 239.915 214.504 240.304 214.551 240.728C214.174 241.175 213.597 241.552 212.819 241.858C212.065 242.165 211.311 242.318 210.558 242.318C209.168 242.318 208.131 241.965 207.448 241.258C206.789 240.528 206.459 239.362 206.459 237.76V228.184C206.106 228.066 205.74 227.971 205.363 227.9C204.986 227.806 204.503 227.747 203.914 227.724C203.914 227.418 203.938 227.158 203.985 226.946C204.032 226.711 204.115 226.451 204.232 226.169H206.459V221.505C206.93 221.387 207.389 221.199 207.837 220.939C208.308 220.68 208.72 220.398 209.073 220.092ZM25.5303 218.007C25.5303 218.313 25.5187 218.595 25.4951 218.854C25.4716 219.114 25.4242 219.338 25.3535 219.526C24.741 219.55 24.246 219.655 23.8691 219.844C23.5158 220.032 23.2683 220.339 23.127 220.763C22.9856 221.187 22.915 221.8 22.915 222.601V237.513C22.9151 238.29 22.9857 238.902 23.127 239.35C23.2683 239.774 23.5159 240.08 23.8691 240.269C24.2461 240.433 24.741 240.54 25.3535 240.587C25.4241 240.775 25.4716 240.999 25.4951 241.258C25.5187 241.493 25.5303 241.777 25.5303 242.106C24.8236 242.059 24.1052 242.024 23.375 242H19.0635C18.2862 242.024 17.591 242.059 16.9785 242.106C16.9785 241.777 16.9911 241.493 17.0146 241.258C17.0382 240.999 17.0847 240.775 17.1553 240.587C17.7913 240.54 18.2863 240.433 18.6396 240.269C18.993 240.08 19.2405 239.774 19.3818 239.35C19.5231 238.902 19.5937 238.29 19.5938 237.513V222.601C19.5938 221.8 19.5232 221.187 19.3818 220.763C19.2405 220.339 18.993 220.032 18.6396 219.844C18.2863 219.655 17.7912 219.55 17.1553 219.526C17.0846 219.338 17.0382 219.114 17.0146 218.854C16.9911 218.595 16.9785 218.313 16.9785 218.007C17.426 218.03 17.8738 218.054 18.3213 218.077C18.7924 218.077 19.2758 218.089 19.7705 218.112H22.7383C23.2094 218.089 23.6696 218.077 24.1172 218.077C24.5882 218.054 25.0593 218.03 25.5303 218.007ZM63.8037 216.664C64.0157 216.735 64.1926 216.876 64.334 217.088C64.4989 217.3 64.581 217.63 64.5811 218.077V237.513C64.5811 238.69 64.7348 239.503 65.041 239.95C65.3708 240.374 65.9123 240.587 66.666 240.587C66.7366 240.822 66.7841 241.093 66.8076 241.399C66.8312 241.706 66.8428 241.942 66.8428 242.106C66.4425 242.083 66.0187 242.059 65.5713 242.035C65.1237 242.035 64.6635 242.024 64.1924 242H61.4365C60.9655 242.024 60.5061 242.035 60.0586 242.035C59.611 242.059 59.1866 242.083 58.7861 242.106C58.7861 241.871 58.7978 241.623 58.8213 241.364C58.8448 241.082 58.8923 240.822 58.9629 240.587C59.9052 240.587 60.5413 240.374 60.8711 239.95C61.2243 239.503 61.4013 238.69 61.4014 237.513V221.682C61.4014 221.116 61.3423 220.657 61.2246 220.304C61.1304 219.927 60.8945 219.644 60.5176 219.455C60.1407 219.267 59.5517 219.173 58.751 219.173C58.751 218.914 58.7742 218.678 58.8213 218.466C58.8684 218.254 58.9516 218.054 59.0693 217.865C59.4226 217.865 59.9171 217.806 60.5527 217.688C61.2122 217.571 61.8485 217.418 62.4609 217.229C63.0732 217.041 63.521 216.852 63.8037 216.664ZM74.3984 225.498C74.6104 225.569 74.7874 225.71 74.9287 225.922C75.0936 226.134 75.1758 226.464 75.1758 226.911V237.513C75.1758 238.69 75.3296 239.503 75.6357 239.95C75.9655 240.374 76.5071 240.587 77.2607 240.587C77.3314 240.822 77.3788 241.093 77.4023 241.399C77.4259 241.706 77.4375 241.942 77.4375 242.106C77.0372 242.083 76.6134 242.059 76.166 242.035C75.7184 242.035 75.2583 242.024 74.7871 242H72.0312C71.5602 242.024 71.1009 242.035 70.6533 242.035C70.2057 242.059 69.7813 242.083 69.3809 242.106C69.3809 241.871 69.3925 241.623 69.416 241.364C69.4396 241.082 69.487 240.822 69.5576 240.587C70.4999 240.587 71.136 240.374 71.4658 239.95C71.8191 239.503 71.9961 238.69 71.9961 237.513V230.516C71.9961 229.95 71.9371 229.491 71.8193 229.138C71.7251 228.761 71.4892 228.478 71.1123 228.289C70.7354 228.101 70.1464 228.007 69.3457 228.007C69.3457 227.748 69.3689 227.512 69.416 227.3C69.4631 227.088 69.5463 226.888 69.6641 226.699C70.0173 226.699 70.5118 226.64 71.1475 226.522C71.8069 226.405 72.4433 226.252 73.0557 226.063C73.6679 225.875 74.1157 225.686 74.3984 225.498ZM102.627 225.498C102.839 225.569 103.015 225.722 103.156 225.957C103.301 226.143 103.382 226.445 103.4 226.865L103.404 227.053L103.396 227.503C103.39 227.662 103.38 227.83 103.368 228.007C103.345 228.36 103.274 228.737 103.156 229.138C103.227 229.02 103.298 228.89 103.368 228.749C103.439 228.584 103.545 228.407 103.687 228.219C104.087 227.677 104.723 227.123 105.595 226.558C106.49 225.969 107.562 225.675 108.811 225.675C109.706 225.675 110.53 225.863 111.284 226.24C112.061 226.594 112.686 227.194 113.157 228.042C113.628 228.867 113.863 229.998 113.863 231.435V237.513C113.863 238.737 114.029 239.561 114.358 239.985C114.712 240.386 115.242 240.587 115.948 240.587C116.019 240.799 116.066 241.022 116.09 241.258C116.113 241.493 116.125 241.777 116.125 242.106C115.607 242.059 115.018 242.024 114.358 242H110.789C110.271 242.024 109.776 242.035 109.305 242.035C108.857 242.059 108.445 242.083 108.068 242.106C108.068 241.777 108.08 241.493 108.104 241.258C108.127 240.999 108.175 240.775 108.245 240.587C109.093 240.587 109.706 240.374 110.083 239.95C110.483 239.503 110.684 238.69 110.684 237.513V232.142C110.684 230.469 110.377 229.338 109.765 228.749C109.152 228.137 108.363 227.83 107.397 227.83C106.785 227.83 106.172 228.03 105.56 228.431C104.947 228.808 104.429 229.432 104.005 230.304C103.604 231.152 103.404 232.294 103.404 233.731V237.513C103.404 238.69 103.58 239.503 103.934 239.95C104.287 240.374 104.923 240.587 105.842 240.587C105.912 240.799 105.96 241.022 105.983 241.258C106.007 241.493 106.019 241.777 106.019 242.106C105.689 242.083 105.288 242.059 104.817 242.035C104.346 242.035 103.851 242.024 103.333 242H100.33C99.8119 242.024 99.3168 242.035 98.8457 242.035C98.3746 242.059 97.9618 242.083 97.6084 242.106C97.6084 241.777 97.621 241.493 97.6445 241.258C97.6681 240.999 97.7146 240.775 97.7852 240.587C98.7039 240.587 99.34 240.374 99.6934 239.95C100.047 239.503 100.224 238.69 100.224 237.513V230.516C100.224 229.95 100.165 229.491 100.047 229.138C99.9291 228.784 99.6816 228.514 99.3047 228.325C98.9278 228.137 98.3506 228.03 97.5732 228.007C97.5732 227.748 97.5974 227.512 97.6445 227.3C97.6917 227.088 97.7739 226.888 97.8916 226.699C98.6219 226.652 99.4581 226.511 100.4 226.275C101.343 226.04 102.085 225.781 102.627 225.498ZM146.525 225.498C147.515 225.498 148.422 225.721 149.246 226.169C150.071 226.617 150.672 227.382 151.049 228.466C151.126 228.698 151.169 229.002 151.183 229.377C151.369 228.906 151.571 228.519 151.791 228.219C152.191 227.677 152.827 227.123 153.698 226.558C154.57 225.969 155.619 225.675 156.844 225.675C157.739 225.675 158.564 225.863 159.317 226.24C160.071 226.594 160.672 227.194 161.119 228.042C161.59 228.867 161.826 229.998 161.826 231.435V237.513C161.826 238.313 161.897 238.937 162.038 239.385C162.203 239.809 162.439 240.104 162.745 240.269C163.075 240.433 163.475 240.54 163.946 240.587C164.017 240.799 164.064 241.022 164.088 241.258C164.111 241.493 164.123 241.777 164.123 242.106C163.605 242.059 163.003 242.024 162.32 242H158.822C158.328 242.024 157.845 242.035 157.374 242.035C156.903 242.059 156.467 242.083 156.066 242.106C156.066 241.777 156.078 241.493 156.102 241.258C156.125 240.999 156.173 240.775 156.243 240.587C156.879 240.54 157.374 240.433 157.728 240.269C158.081 240.08 158.327 239.774 158.469 239.35C158.61 238.902 158.681 238.29 158.681 237.513V232.142C158.681 230.469 158.375 229.338 157.763 228.749C157.174 228.137 156.396 227.83 155.431 227.83C154.842 227.83 154.24 228.03 153.628 228.431C153.015 228.808 152.509 229.432 152.108 230.304C151.708 231.152 151.508 232.294 151.508 233.731V237.513C151.508 238.737 151.696 239.55 152.073 239.95C152.45 240.327 153.086 240.54 153.981 240.587C154.052 240.799 154.099 241.022 154.123 241.258C154.147 241.493 154.158 241.777 154.158 242.106C153.569 242.059 152.886 242.024 152.108 242H147.798C147.068 242.024 146.384 242.059 145.748 242.106C145.748 241.777 145.76 241.493 145.783 241.258C145.807 240.999 145.854 240.775 145.925 240.587C146.561 240.54 147.056 240.433 147.409 240.269C147.762 240.08 148.01 239.774 148.151 239.35C148.293 238.902 148.363 238.29 148.363 237.513V231.965C148.363 230.292 148.057 229.161 147.444 228.572C146.855 227.96 146.078 227.653 145.112 227.653C144.523 227.653 143.922 227.853 143.31 228.254C142.697 228.631 142.191 229.255 141.79 230.127C141.39 230.975 141.189 232.118 141.189 233.555V237.513C141.189 238.69 141.366 239.491 141.72 239.915C142.073 240.316 142.721 240.54 143.663 240.587C143.734 240.799 143.781 241.022 143.805 241.258C143.828 241.493 143.84 241.777 143.84 242.106C143.439 242.083 142.992 242.059 142.497 242.035C142.002 242.035 141.507 242.024 141.013 242H138.257C137.739 242.024 137.232 242.035 136.737 242.035C136.243 242.059 135.807 242.083 135.43 242.106C135.43 241.777 135.441 241.493 135.465 241.258C135.488 240.999 135.536 240.775 135.606 240.587C136.549 240.54 137.185 240.316 137.515 239.915C137.868 239.491 138.045 238.69 138.045 237.513V230.516C138.045 229.95 137.986 229.491 137.868 229.138C137.75 228.784 137.503 228.514 137.126 228.325C136.749 228.137 136.172 228.03 135.395 228.007C135.395 227.748 135.418 227.512 135.465 227.3C135.512 227.088 135.595 226.888 135.713 226.699C136.113 226.676 136.608 226.605 137.196 226.487C137.809 226.346 138.398 226.193 138.964 226.028C139.529 225.84 139.964 225.663 140.271 225.498C140.482 225.569 140.659 225.71 140.801 225.922C140.966 226.134 141.048 226.464 141.048 226.911C141.048 227.288 141.025 227.724 140.978 228.219C140.966 228.469 140.941 228.778 140.905 229.148C140.991 228.933 141.063 228.764 141.119 228.643C141.284 228.336 141.402 228.136 141.473 228.042C141.85 227.5 142.473 226.946 143.345 226.381C144.24 225.792 145.3 225.498 146.525 225.498ZM188.448 225.498C188.66 225.569 188.837 225.722 188.979 225.957C189.123 226.143 189.204 226.445 189.222 226.865L189.226 227.053L189.217 227.503C189.211 227.662 189.202 227.83 189.19 228.007C189.167 228.36 189.096 228.737 188.979 229.138C189.049 229.02 189.12 228.89 189.19 228.749C189.261 228.584 189.367 228.407 189.509 228.219C189.909 227.677 190.545 227.123 191.417 226.558C192.312 225.969 193.384 225.675 194.633 225.675C195.528 225.675 196.352 225.863 197.105 226.24C197.883 226.594 198.507 227.194 198.979 228.042C199.45 228.867 199.686 229.998 199.686 231.435V237.513C199.686 238.737 199.85 239.561 200.18 239.985C200.533 240.386 201.064 240.587 201.771 240.587C201.841 240.799 201.889 241.022 201.912 241.258C201.936 241.493 201.947 241.777 201.947 242.106C201.429 242.059 200.839 242.024 200.18 242H196.611C196.093 242.024 195.598 242.035 195.127 242.035C194.68 242.059 194.267 242.083 193.891 242.106C193.891 241.777 193.902 241.493 193.926 241.258C193.949 240.999 193.997 240.775 194.067 240.587C194.915 240.587 195.527 240.374 195.904 239.95C196.305 239.503 196.505 238.69 196.505 237.513V232.142C196.505 230.469 196.199 229.338 195.587 228.749C194.974 228.137 194.185 227.83 193.219 227.83C192.606 227.83 191.994 228.03 191.382 228.431C190.769 228.808 190.25 229.432 189.826 230.304C189.426 231.152 189.226 232.295 189.226 233.731V237.513C189.226 238.69 189.403 239.503 189.756 239.95C190.109 240.374 190.745 240.587 191.664 240.587C191.735 240.799 191.782 241.022 191.806 241.258C191.829 241.493 191.841 241.777 191.841 242.106C191.511 242.083 191.111 242.059 190.64 242.035C190.169 242.035 189.674 242.024 189.155 242H186.151C185.633 242.024 185.139 242.035 184.668 242.035C184.197 242.059 183.784 242.083 183.431 242.106C183.431 241.777 183.442 241.493 183.466 241.258C183.489 240.999 183.537 240.775 183.607 240.587C184.526 240.587 185.162 240.374 185.516 239.95C185.869 239.503 186.046 238.69 186.046 237.513V230.516C186.046 229.95 185.987 229.491 185.869 229.138C185.751 228.784 185.504 228.514 185.127 228.325C184.75 228.137 184.173 228.03 183.396 228.007C183.396 227.748 183.419 227.512 183.466 227.3C183.513 227.088 183.596 226.888 183.714 226.699C184.444 226.652 185.281 226.511 186.223 226.275C187.165 226.04 187.907 225.781 188.448 225.498ZM221.922 225.498C222.134 225.569 222.31 225.71 222.451 225.922C222.616 226.134 222.699 226.464 222.699 226.911V237.513C222.699 238.69 222.852 239.503 223.158 239.95C223.488 240.374 224.03 240.587 224.783 240.587C224.854 240.822 224.901 241.093 224.925 241.399C224.948 241.706 224.96 241.942 224.96 242.106C224.56 242.083 224.136 242.059 223.688 242.035C223.241 242.035 222.782 242.024 222.311 242H219.554C219.083 242.024 218.623 242.035 218.176 242.035C217.728 242.059 217.304 242.083 216.903 242.106C216.903 241.871 216.916 241.623 216.939 241.364C216.963 241.082 217.009 240.822 217.08 240.587C218.022 240.587 218.658 240.374 218.988 239.95C219.342 239.503 219.519 238.69 219.519 237.513V230.516C219.519 229.95 219.46 229.491 219.342 229.138C219.248 228.761 219.012 228.478 218.635 228.289C218.258 228.101 217.669 228.007 216.868 228.007C216.868 227.748 216.892 227.512 216.939 227.3C216.987 227.088 217.069 226.888 217.187 226.699C217.54 226.699 218.035 226.64 218.671 226.522C219.33 226.405 219.967 226.252 220.579 226.063C221.191 225.875 221.639 225.686 221.922 225.498ZM50.7275 233.979C50.1388 234.049 49.5148 234.156 48.8555 234.297C48.1959 234.415 47.583 234.603 47.0176 234.862C46.4524 235.121 45.993 235.486 45.6396 235.957C45.2863 236.405 45.1094 237.018 45.1094 237.795C45.1094 238.666 45.3212 239.303 45.7451 239.703C46.1691 240.104 46.6641 240.304 47.2295 240.304C47.7476 240.304 48.2777 240.139 48.8193 239.81C49.3611 239.456 49.8088 238.914 50.1621 238.184C50.539 237.453 50.7275 236.499 50.7275 235.321V233.979ZM89.5146 233.979C88.9259 234.049 88.3019 234.156 87.6426 234.297C86.983 234.415 86.3701 234.603 85.8047 234.862C85.2395 235.121 84.7801 235.486 84.4268 235.957C84.0734 236.405 83.8965 237.018 83.8965 237.795C83.8965 238.666 84.1083 239.303 84.5322 239.703C84.9562 240.104 85.4513 240.304 86.0166 240.304C86.5347 240.304 87.0648 240.139 87.6064 239.81C88.1483 239.456 88.5968 238.914 88.9502 238.184C89.327 237.453 89.5146 236.499 89.5146 235.321V233.979ZM173.797 227.194C173.231 227.194 172.678 227.37 172.136 227.724C171.594 228.053 171.146 228.655 170.793 229.526C170.497 230.236 170.327 231.202 170.279 232.424H177.048C177.048 230.869 176.766 229.608 176.2 228.643C175.635 227.677 174.833 227.194 173.797 227.194ZM125.796 227.194C125.231 227.194 124.677 227.37 124.135 227.724C123.593 228.053 123.145 228.655 122.792 229.526C122.496 230.236 122.326 231.202 122.278 232.424H129.047C129.047 230.869 128.765 229.608 128.199 228.643C127.634 227.677 126.832 227.194 125.796 227.194ZM73.3037 217.3C73.9396 217.3 74.4464 217.5 74.8232 217.9C75.2236 218.301 75.4238 218.819 75.4238 219.455C75.4238 219.997 75.2111 220.48 74.7871 220.904C74.3867 221.305 73.8924 221.505 73.3037 221.505C72.7148 221.505 72.2198 221.305 71.8193 220.904C71.4189 220.504 71.2188 220.02 71.2188 219.455C71.2188 218.819 71.4305 218.301 71.8545 217.9C72.2785 217.5 72.7619 217.3 73.3037 217.3ZM220.826 217.3C221.462 217.3 221.969 217.5 222.346 217.9C222.746 218.301 222.946 218.819 222.946 219.455C222.946 219.997 222.734 220.48 222.311 220.904C221.91 221.305 221.415 221.505 220.826 221.505C220.237 221.505 219.742 221.305 219.342 220.904C218.941 220.504 218.741 220.02 218.741 219.455C218.741 218.819 218.953 218.301 219.377 217.9C219.801 217.5 220.284 217.3 220.826 217.3Z" fill="#1F2F56"/>
<path d="M82.9888 197.765C81.5285 198.404 80.1104 198.729 78.7176 198.729C76.0249 198.729 74.0581 197.978 72.8004 196.476C71.5427 194.975 70.918 192.555 70.918 189.2V169.196C69.5759 168.705 67.9636 168.38 66.0812 168.232C66.0812 167.101 66.2838 166.017 66.689 164.988H70.9264V155.246C72.6738 154.708 74.3282 153.725 75.8983 152.289C76.3457 152.539 76.6411 152.863 76.7762 153.29C76.9112 153.707 76.9787 154.652 76.9787 156.136V164.997H84.4576V16H16V200.527H84.4491V196.986C84.0018 197.264 83.5291 197.533 82.9888 197.765ZM51.6638 147.747C52.4488 146.885 53.3773 146.458 54.4494 146.458C55.6564 146.458 56.6356 146.875 57.37 147.71C58.1128 148.544 58.4758 149.628 58.4758 150.954C58.4758 152.085 58.079 153.086 57.3025 153.948C56.5174 154.81 55.5636 155.236 54.4494 155.236C53.3351 155.236 52.3897 154.819 51.63 153.985C50.8703 153.151 50.4905 152.14 50.4905 150.954C50.4905 149.675 50.8788 148.599 51.6638 147.747ZM54.7195 198.052C51.8073 198.052 49.2327 198.126 46.9874 198.274C46.9874 196.949 47.0971 195.883 47.325 195.104C49.1146 195.104 50.3385 194.65 50.9885 193.742C51.6385 192.833 51.9677 191.146 51.9677 188.681V174.063C51.9677 172.783 51.8579 171.773 51.63 171.032C51.4021 170.29 50.9378 169.743 50.2204 169.372C49.5029 169.002 48.4055 168.816 46.9283 168.816C46.9283 167.685 47.1309 166.777 47.5361 166.082C48.6587 166.082 50.2457 165.813 52.3138 165.266C54.3734 164.728 55.7831 164.163 56.5512 163.57C57.5388 163.913 58.0284 164.895 58.0284 166.527V188.671C58.0284 191.137 58.3154 192.815 58.9063 193.732C59.4887 194.641 60.5185 195.095 61.9957 195.095C62.2152 195.929 62.3334 196.986 62.3334 198.265C60.0036 198.117 57.4713 198.043 54.7364 198.043L54.7195 198.052Z" fill="#F08D23"/>
<path d="M76.9704 187.642C76.9704 192.37 78.2703 194.734 80.8702 194.734C81.765 194.734 82.5584 194.585 83.259 194.289C83.6558 194.122 84.0609 193.89 84.4492 193.621V168.26C81.4358 168.418 78.9372 168.723 76.9704 169.187V187.642Z" fill="#F08D23"/>
</svg>
