<svg width="69" height="185" viewBox="0 0 69 185" fill="none" xmlns="http://www.w3.org/2000/svg">
<path d="M66.9888 181.765C65.5285 182.404 64.1104 182.729 62.7176 182.729C60.0249 182.729 58.0581 181.978 56.8004 180.476C55.5427 178.975 54.918 176.555 54.918 173.2V153.196C53.5759 152.705 51.9636 152.38 50.0812 152.232C50.0812 151.101 50.2838 150.017 50.689 148.988H54.9264V139.246C56.6738 138.708 58.3282 137.725 59.8983 136.289C60.3457 136.539 60.6411 136.863 60.7762 137.29C60.9112 137.707 60.9787 138.652 60.9787 140.136V148.997H68.4576V0H0V184.527H68.4491V180.986C68.0018 181.264 67.5291 181.533 66.9888 181.765ZM35.6638 131.747C36.4488 130.885 37.3773 130.458 38.4494 130.458C39.6564 130.458 40.6356 130.875 41.37 131.71C42.1128 132.544 42.4758 133.628 42.4758 134.954C42.4758 136.085 42.079 137.086 41.3025 137.948C40.5174 138.81 39.5636 139.236 38.4494 139.236C37.3351 139.236 36.3897 138.819 35.63 137.985C34.8703 137.151 34.4905 136.14 34.4905 134.954C34.4905 133.675 34.8788 132.599 35.6638 131.747ZM38.7195 182.052C35.8073 182.052 33.2327 182.126 30.9874 182.274C30.9874 180.949 31.0971 179.883 31.325 179.104C33.1146 179.104 34.3385 178.65 34.9885 177.742C35.6385 176.833 35.9677 175.146 35.9677 172.681V158.063C35.9677 156.783 35.8579 155.773 35.63 155.032C35.4021 154.29 34.9378 153.743 34.2204 153.372C33.5029 153.002 32.4055 152.816 30.9283 152.816C30.9283 151.685 31.1309 150.777 31.5361 150.082C32.6587 150.082 34.2457 149.813 36.3138 149.266C38.3734 148.728 39.7831 148.163 40.5512 147.57C41.5388 147.913 42.0284 148.895 42.0284 150.527V172.671C42.0284 175.137 42.3154 176.815 42.9063 177.732C43.4887 178.641 44.5185 179.095 45.9957 179.095C46.2152 179.929 46.3334 180.986 46.3334 182.265C44.0036 182.117 41.4713 182.043 38.7364 182.043L38.7195 182.052Z" fill="#F08D23"/>
<path d="M60.9704 171.642C60.9704 176.37 62.2703 178.734 64.8702 178.734C65.765 178.734 66.5584 178.585 67.259 178.289C67.6558 178.122 68.0609 177.89 68.4492 177.621V152.26C65.4358 152.418 62.9372 152.723 60.9704 153.187V171.642Z" fill="#F08D23"/>
</svg>
