<svg width="85" height="85" viewBox="0 0 85 85" fill="none" xmlns="http://www.w3.org/2000/svg">
<path d="M65.2457 58.8747C65.2457 62.5151 66.3451 64.3353 68.544 64.3353C69.3008 64.3353 69.9719 64.2211 70.5644 63.9927C70.9 63.8642 71.2426 63.6858 71.571 63.4788V43.949C69.0223 44.0704 66.9091 44.3059 65.2457 44.6628V58.8747Z" fill="#F08D23"/>
<path d="M70.336 66.6695C69.1009 67.162 67.9015 67.4118 66.7235 67.4118C64.4461 67.4118 62.7826 66.8336 61.7189 65.6773C60.6551 64.5209 60.1268 62.6579 60.1268 60.0739V44.67C58.9917 44.2917 57.6281 44.0418 56.036 43.9276C56.036 43.0568 56.2074 42.2216 56.5501 41.4293H60.134V33.9272C61.6118 33.5132 63.0111 32.7565 64.339 31.6501C64.7174 31.8429 64.9672 32.0927 65.0815 32.4211C65.1957 32.7423 65.2528 33.4704 65.2528 34.6124V41.4364H71.5782V13.648H13.6788V71.5305H71.5711V66.0699C71.1927 66.284 70.7929 66.491 70.336 66.6695ZM43.8422 28.1525C44.5061 27.4887 45.2915 27.1603 46.1981 27.1603C47.2191 27.1603 48.0472 27.4815 48.6683 28.124C49.2966 28.7664 49.6036 29.6015 49.6036 30.6223C49.6036 31.4931 49.268 32.264 48.6112 32.9279C47.9473 33.5917 47.1405 33.9201 46.1981 33.9201C45.2558 33.9201 44.4562 33.5988 43.8136 32.9564C43.1711 32.314 42.8498 31.5359 42.8498 30.6223C42.8498 29.6372 43.1782 28.8092 43.8422 28.1525ZM46.4266 66.8907C43.9635 66.8907 41.7861 66.9478 39.887 67.0621C39.887 66.0413 39.9798 65.2204 40.1726 64.6208C41.6861 64.6208 42.7213 64.2711 43.271 63.5715C43.8208 62.872 44.0992 61.5729 44.0992 59.6742V48.4174C44.0992 47.4324 44.0064 46.6543 43.8136 46.0833C43.6209 45.5123 43.2282 45.0911 42.6214 44.8056C42.0145 44.5201 41.0864 44.3773 39.8371 44.3773C39.8371 43.5065 40.0084 42.8069 40.3511 42.2716C41.3006 42.2716 42.6428 42.0646 44.3919 41.6434C46.1339 41.2294 47.3261 40.794 47.9758 40.3372C48.8111 40.6013 49.2252 41.3579 49.2252 42.6142V59.667C49.2252 61.5657 49.4679 62.8577 49.9677 63.5644C50.4603 64.2639 51.3313 64.6137 52.5806 64.6137C52.7663 65.2561 52.8662 66.0699 52.8662 67.0549C50.8958 66.9407 48.754 66.8836 46.4409 66.8836L46.4266 66.8907Z" fill="#F08D23"/>
</svg>
